{"title":"The Hangover Part II TS V2  XViD - DTRG - SAFCuk009","uid":6440463,"size":1229813890,"categoryP":"video","categoryS":"movies","magnet":"?xt=urn:btih:6abe7114a5e77542ac26f458ee8a456017fe9ef9&amp;dn=The+Hangover+Part+II+TS+V2++XViD+-+DTRG+-+SAFCuk009&amp;tr=udp%3A%2F%2Ftracker.openbittorrent.com%3A80&amp;tr=udp%3A%2F%2Fopen.demonii.com%3A1337&amp;tr=udp%3A%2F%2Ftracker.coppersurfer.tk%3A6969&amp;tr=udp%3A%2F%2Fexodus.desync.com%3A6969","seeders":1,"leechers":0,"uploader":"SAFCukO09","files":3,"time":1306964260,"description":"Format : AVI\nFormat/Info : Audio Video Interleave\nFile size : 1.15 GiB\nDuration : 1h 39mn\nOverall bit rate : 1 646 Kbps\nWriting library : VirtualDub build 32839/release\n\nVideo\nID : 0\nFormat : MPEG-4 Visual\nFormat profile : Advanced Simple@L5\nFormat settings, BVOP : 2\nFormat settings, QPel : No\nFormat settings, GMC : No warppoints\nFormat settings, Matrix : Default (H.263)\nMuxing mode : Packed bitstream\nCodec ID : XVID\nCodec ID/Hint : XviD\nDuration : 1h 39mn\nBit rate : 1 509 Kbps\nWidth : 720 pixels\nHeight : 288 pixels\nDisplay aspect ratio : 2.500\nFrame rate : 23.976 fps\nColor space : YUV\nChroma subsampling : 4:2:0\nBit depth : 8 bits\nScan type : Progressive\nCompression mode : Lossy\nBits/(Pixel*Frame) : 0.303\nStream size : 1.05 GiB (92%)\nWriting library : XviD 63\n\nAudio\nID : 1\nFormat : MPEG Audio\nFormat version : Version 1\nFormat profile : Layer 3\nCodec ID : 55\nCodec ID/Hint : MP3\nDuration : 1h 39mn\nBit rate mode : Constant\nBit rate : 128 Kbps\nChannel(s) : 2 channels\nSampling rate : 44.1 KHz\nCompression mode : Lossy\nStream size : 91.2 MiB (8%)\nAlignment : Split accross interleaves\nInterleave, duration : 42 ms (1.00 video frame)\nInterleave, preload duration : 500 ms\n\n\n\n &lt;a href=&quot;\nhttp://www.imdb.com/title/tt1411697/&quot; rel=&quot;nofollow&quot; target=&quot;_NEW&quot;&gt;\nhttp://www.imdb.com/title/tt1411697/&lt;/a&gt;\n\n\n\n\n\n\n\nUsers: 7.1/10 (7,979 votes) 97 reviews | Critics: 22 reviews Metascore: 46/100 (based on 33 reviews from Metacritic.com)\n\nRight after the bachelor party in Las Vegas, Phil, Stu, Alan, and Doug jet to Thailand for Stu's wedding. Stu's plan for a subdued pre-wedding brunch, however, goes seriously awry.\nDirector:\nTodd Phillips\nWriters:\nCraig Mazin, Scot Armstrong, and 3 more credits Ã‚Â»\nStars:\nBradley Cooper, Zach Galifianakis and Ed Helms\n\n\n\n\n\n\n\n\n\n\n\n\n\n\n\n\n\nSource Used\n\n\nVIDEO:Spank My SeedBox and cinedub (IMAGiNE) ..Thanks\n\nAUDIO:IMAGiNE &amp; EP1C ...................................Thanks\n\n\nBe warned this is v2 believe it or not their will be a V3 imo the crop on this spoils it abit .......Ran filters so enjoy !\n\n\n\nGreetz to IMAGiNE,Flawl3ss,DiLLoN,BDK,NOiR,TOXiCiNK,THC,Ez,Rx,Boobyblue,TaRiQ786,LKRG,CrEwSaDe","torrent":{"xt":"urn:btih:6abe7114a5e77542ac26f458ee8a456017fe9ef9","amp;dn":"The+Hangover+Part+II+TS+V2++XViD+-+DTRG+-+SAFCuk009","amp;tr":["udp%3A%2F%2Ftracker.openbittorrent.com%3A80","udp%3A%2F%2Fopen.demonii.com%3A1337","udp%3A%2F%2Ftracker.coppersurfer.tk%3A6969","udp%3A%2F%2Fexodus.desync.com%3A6969"],"infoHash":"6abe7114a5e77542ac26f458ee8a456017fe9ef9","infoHashBuffer":{"type":"Buffer","data":[106,190,113,20,165,231,117,66,172,38,244,88,238,138,69,96,23,254,158,249]},"announce":[],"urlList":[]}}